<?xml version="1.0" encoding="utf-8"?>
<!-- Generator: Adobe Illustrator 23.0.0, SVG Export Plug-In . SVG Version: 6.00 Build 0)  -->
<svg version="1.1" id="Layer_1" xmlns="http://www.w3.org/2000/svg" xmlns:xlink="http://www.w3.org/1999/xlink" x="0px" y="0px"
	 viewBox="0 0 595.28 841.89" style="enable-background:new 0 0 595.28 841.89;" xml:space="preserve">
<style type="text/css">
	.st0{fill:none;stroke:#FFFFFF;stroke-miterlimit:10;}
</style>
<g>
	<path d="M430,230.5c0-15.39-72.32-16.27-77.87-29.66c-5.75-13.87,44.54-65.6,34.08-76.05c-10.45-10.46-62.18,39.83-76.05,34.08
		C296.77,153.32,295.89,81,280.5,81s-16.27,72.32-29.66,77.87c-13.87,5.75-65.6-44.54-76.05-34.08
		c-10.46,10.45,39.83,62.18,34.08,76.05C203.32,214.23,131,215.11,131,230.5s72.32,16.27,77.87,29.66
		c5.75,13.87-44.54,65.6-34.08,76.05c10.45,10.46,62.18-39.83,76.05-34.08c13.39,5.55,14.27,77.87,29.66,77.87
		s16.27-72.32,29.66-77.87c13.87-5.75,65.6,44.54,76.05,34.08c10.46-10.45-39.83-62.18-34.08-76.05
		C357.68,246.77,430,245.89,430,230.5z M280.5,273.25c-23.61,0-42.75-19.14-42.75-42.75s19.14-42.75,42.75-42.75
		s42.75,19.14,42.75,42.75S304.11,273.25,280.5,273.25z"/>
	<path class="st0" d="M430,230.5c0-15.39-72.32-16.27-77.87-29.66c-5.75-13.87,44.54-65.6,34.08-76.05
		c-10.45-10.46-62.18,39.83-76.05,34.08C296.77,153.32,295.89,81,280.5,81s-16.27,72.32-29.66,77.87
		c-13.87,5.75-65.6-44.54-76.05-34.08c-10.46,10.45,39.83,62.18,34.08,76.05C203.32,214.23,131,215.11,131,230.5
		s72.32,16.27,77.87,29.66c5.75,13.87-44.54,65.6-34.08,76.05c10.45,10.46,62.18-39.83,76.05-34.08
		c13.39,5.55,14.27,77.87,29.66,77.87s16.27-72.32,29.66-77.87c13.87-5.75,65.6,44.54,76.05,34.08
		c10.46-10.45-39.83-62.18-34.08-76.05C357.68,246.77,430,245.89,430,230.5z M280.5,273.25c-23.61,0-42.75-19.14-42.75-42.75
		s19.14-42.75,42.75-42.75s42.75,19.14,42.75,42.75S304.11,273.25,280.5,273.25z"/>
</g>
</svg>
